<?xml version="1.0" standalone="no"?>
<!DOCTYPE svg PUBLIC "-//W3C//DTD SVG 20010904//EN"
 "http://www.w3.org/TR/2001/REC-SVG-20010904/DTD/svg10.dtd">
<svg version="1.0" xmlns="http://www.w3.org/2000/svg"
 width="256.000000pt" height="256.000000pt" viewBox="0 0 256.000000 256.000000"
 preserveAspectRatio="xMidYMid meet">

<g transform="translate(0.000000,256.000000) scale(0.100000,-0.100000)"
fill="#000000" stroke="none">
<path d="M2050 2022 c-36 -37 -54 -101 -47 -174 6 -72 32 -118 79 -141 35 -17
39 -17 72 -2 21 10 41 30 51 51 30 63 -4 89 -40 31 -25 -40 -60 -42 -87 -6
-61 81 -7 249 66 209 13 -7 29 -23 35 -37 6 -13 17 -23 24 -21 13 5 22 80 12
106 -5 13 -7 13 -23 -1 -15 -13 -20 -14 -36 -1 -32 23 -74 17 -106 -14z"/>
<path d="M1200 2021 c0 -11 5 -23 10 -26 14 -9 13 -245 -1 -245 -6 0 -9 -10
-7 -22 2 -19 10 -24 41 -26 34 -3 37 -1 37 22 0 14 -4 28 -10 31 -6 3 -10 47
-10 98 1 107 8 101 40 -28 36 -142 43 -140 80 15 13 55 27 100 32 100 4 0 8
-39 8 -87 0 -66 -4 -91 -16 -104 -27 -30 -11 -51 38 -47 33 2 44 8 46 22 2 10
-3 23 -12 28 -23 13 -24 236 -1 244 8 4 15 15 15 26 0 17 -6 19 -47 16 l-48
-3 -21 -85 c-12 -47 -25 -85 -30 -85 -4 0 -12 16 -17 35 -4 19 -15 59 -23 88
l-15 52 -45 0 c-37 0 -44 -3 -44 -19z"/>
<path d="M2250 2023 c0 -9 6 -24 14 -32 7 -9 23 -54 35 -101 43 -164 52 -190
66 -190 20 0 29 21 60 150 15 63 34 125 41 137 25 39 18 53 -25 53 -43 0 -64
-26 -38 -45 13 -9 12 -22 -3 -94 -17 -78 -25 -100 -34 -90 -1 2 -12 43 -23 91
-16 71 -17 88 -6 92 7 3 13 15 13 26 0 17 -6 20 -50 20 -40 0 -50 -3 -50 -17z"/>
<path d="M1547 1920 c-80 -95 -3 -280 86 -209 31 24 38 66 10 54 -53 -22 -83
-12 -83 26 0 16 8 19 50 19 l50 0 0 36 c0 55 -33 103 -72 104 -9 0 -27 -13
-41 -30z m67 -36 c13 -33 6 -44 -24 -44 -22 0 -30 5 -30 18 0 36 42 57 54 26z"/>
<path d="M1680 1921 c0 -11 5 -23 10 -26 6 -3 10 -39 10 -80 0 -84 5 -102 31
-116 14 -7 25 -5 43 6 16 11 26 13 31 6 8 -14 52 -14 60 0 4 5 0 18 -9 28 -12
13 -16 39 -16 109 l0 92 -30 0 c-22 0 -30 -5 -30 -18 0 -10 5 -23 11 -29 5 -5
9 -38 7 -74 -3 -61 -4 -64 -28 -64 -25 0 -25 1 -28 93 l-3 92 -29 0 c-23 0
-30 -5 -30 -19z"/>
<path d="M1454 1479 c-3 -5 -2 -15 3 -22 10 -13 9 -202 -2 -228 -5 -13 3 -16
44 -17 64 -1 81 19 81 95 0 64 -26 99 -66 89 -23 -6 -24 -4 -24 38 0 43 -21
69 -36 45z m96 -128 c27 -51 -3 -131 -44 -115 -12 5 -16 19 -16 63 0 32 3 61
7 64 13 14 43 7 53 -12z"/>
<path d="M2034 1479 c-3 -5 -2 -15 3 -22 11 -15 10 -206 -1 -229 -7 -15 -3
-18 17 -18 28 0 44 15 27 25 -6 4 -10 55 -10 125 0 94 -3 119 -15 123 -8 4
-17 2 -21 -4z"/>
<path d="M1225 1471 c-3 -5 -1 -12 5 -16 6 -4 10 -58 10 -135 0 -104 -3 -129
-15 -134 -22 -8 -18 -26 5 -26 31 0 40 38 40 170 0 70 4 121 10 125 16 10 1
25 -25 25 -13 0 -26 -4 -30 -9z"/>
<path d="M1690 1435 c0 -25 5 -45 10 -45 6 0 10 14 10 30 0 23 4 30 20 30 19
0 20 -7 20 -104 0 -59 -4 -108 -10 -111 -21 -13 -9 -25 25 -25 34 0 46 12 25
25 -6 3 -10 52 -10 111 0 97 1 104 20 104 16 0 20 -7 20 -30 0 -16 5 -30 11
-30 6 0 9 17 7 43 l-3 42 -72 3 -73 3 0 -46z"/>
<path d="M1872 1464 c4 -21 22 -23 26 -1 2 10 -3 17 -13 17 -10 0 -15 -6 -13
-16z"/>
<path d="M1950 1432 c0 -15 -6 -34 -12 -40 -10 -10 -10 -15 -1 -20 7 -4 13
-37 15 -76 2 -52 7 -72 20 -80 24 -15 34 0 15 22 -24 26 -23 117 1 131 16 10
16 12 0 25 -10 7 -18 25 -18 40 0 14 -4 26 -10 26 -5 0 -10 -13 -10 -28z"/>
<path d="M1330 1380 c-52 -52 -28 -170 35 -170 38 0 60 36 60 97 0 45 -4 58
-24 74 -30 24 -46 24 -71 -1z m61 -26 c17 -20 16 -88 -1 -109 -20 -25 -40 -17
-56 21 -28 66 18 135 57 88z"/>
<path d="M1862 1391 c-10 -6 -10 -10 3 -21 21 -17 21 -128 0 -136 -27 -11 -16
-24 20 -24 35 0 43 8 25 26 -5 5 -10 42 -12 83 -3 73 -11 89 -36 72z"/>
<path d="M2125 1380 c-10 -11 -20 -41 -22 -67 -4 -39 -1 -53 17 -75 24 -31 60
-37 80 -13 18 21 6 29 -19 13 -17 -10 -23 -10 -35 2 -8 8 -16 24 -18 35 -3 17
3 20 46 23 l48 3 -6 31 c-12 63 -57 86 -91 48z m64 -29 c13 -23 5 -31 -29 -31
-15 0 -30 3 -33 6 -11 12 13 44 33 44 11 0 24 -8 29 -19z"/>
</g>
</svg>
